# xmcd
# 
# Track frame offsets:
#     187
#     26837
#     38512
#     47870
#     58285
#     70517
#     75047
#     90297
#     93302
#     107025
#     141907
#     148707
#     160865
#     174542
#     182665
#     193042
# 
# Disc length: 2759
# 
# Revision: 5
# Processed by: cddbd v1.5.2PL0 Copyright (c) Steve Scherf et al.
# Submitted via: fre:ac v1.0.17
# 
DISCID=cd0ac510
DTITLE=George Winston - Forest
DYEAR=1994
DGENRE=Easy Listening
TTITLE0=Tamarack Pines
TTITLE1=Forbidden Forest
TTITLE2=Troubador
TTITLE3=The Cradle
TTITLE4=Cloudy this Morning
TTITLE5=Last Lullaby Here
TTITLE6=Mon Enfant (My Child)
TTITLE7=Returning
TTITLE8=Graceful Ghost
TTITLE9=Walking in the Air
TTITLE10=Building the Snowman
TTITLE11=The Snowman's Music Box Dance
TTITLE12=Love Song to a Ballerina
TTITLE13=Lights in the Sky
TTITLE14=Japanese Music Box (Itsuki No Komoriuta)
TTITLE15=Night Sky
EXTD=YEAR: 1994
EXTT0=
EXTT1=
EXTT2=
EXTT3=
EXTT4=
EXTT5=
EXTT6=
EXTT7=
EXTT8=
EXTT9=
EXTT10=
EXTT11=
EXTT12=
EXTT13=
EXTT14=
EXTT15=
PLAYORDER=
